<svg xmlns="http://www.w3.org/2000/svg" xmlns:xlink="http://www.w3.org/1999/xlink" width="245.003" height="65.787" viewBox="0 0 245.003 65.787">
  <defs>
    <clipPath id="clip-path">
      <path id="Path_497" data-name="Path 497" d="M574.337,20.9h245V-44.882h-245Z" transform="translate(-574.337 44.882)" fill="none"/>
    </clipPath>
  </defs>
  <g id="Group_329" data-name="Group 329" clip-path="url(#clip-path)">
    <g id="Group_317" data-name="Group 317" transform="translate(1.43 16)">
      <path id="Path_485" data-name="Path 485" d="M14.674,13.014a.318.318,0,0,1-.318.318h-3.1a.319.319,0,0,1-.32-.318V-3.923a.319.319,0,0,1,.32-.318h3.1a.318.318,0,0,1,.318.318ZM27.51-4.531a8.172,8.172,0,0,1,6.808,3.3V-27.318a.623.623,0,0,0-.991-.5L1.1-4.241h.855C5.3-4.241,7.011-2.107,7.011.237A4.01,4.01,0,0,1,4.786,4a.27.27,0,0,0,.013.5A4.354,4.354,0,0,1,7.354,8.564c0,2.66-1.738,4.768-5.111,4.768h-9.19a.347.347,0,0,1-.347-.347V1.9L-31.284,19.443a.546.546,0,0,0,.322.988H33.771a.547.547,0,0,0,.547-.547V11.008a9.7,9.7,0,0,1-6.808,2.641c-5.165,0-9.381-3.556-9.381-9.091,0-5.558,4.216-9.089,9.381-9.089" transform="translate(31.505 27.942)" fill="#2d2e3d"/>
    </g>
    <g id="Group_318" data-name="Group 318" transform="translate(29.382 42.993)">
      <path id="Path_486" data-name="Path 486" d="M.11,1.172H4.452A1.821,1.821,0,0,0,6.508-.672,1.849,1.849,0,0,0,4.452-2.517H-.06a.178.178,0,0,0-.177.179V.825a.347.347,0,0,0,.347.347" transform="translate(0.237 2.517)" fill="#2d2e3d"/>
    </g>
    <g id="Group_319" data-name="Group 319" transform="translate(29.382 49.976)">
      <path id="Path_487" data-name="Path 487" d="M.11,1.272h4.5c1.4,0,2.24-.737,2.24-2a2.007,2.007,0,0,0-2.24-2H.11a.347.347,0,0,0-.347.347V.925a.343.343,0,0,0,.347.347" transform="translate(0.237 2.732)" fill="#2d2e3d"/>
    </g>
    <g id="Group_320" data-name="Group 320" transform="translate(54.912 42.731)">
      <path id="Path_488" data-name="Path 488" d="M3.021.643A5.025,5.025,0,0,0-.952-1.38,5.478,5.478,0,0,0-6.485,4.389,5.479,5.479,0,0,0-.952,10.16,5.913,5.913,0,0,0,2.661,8.905a.291.291,0,0,0,.1-.226V6.987a.278.278,0,0,0-.278-.278H-1.5a.372.372,0,0,1-.372-.371V3.812A.372.372,0,0,1-1.5,3.441h7.36V-.536L3.5.754A.385.385,0,0,1,3.021.643" transform="translate(6.485 1.38)" fill="#2d2e3d"/>
    </g>
    <g id="Group_321" data-name="Group 321" transform="translate(69.99 39.397)">
      <path id="Path_489" data-name="Path 489" d="M0,2.888A8.692,8.692,0,0,1,8.9-6.2a7.514,7.514,0,0,1,6.621,3.657.3.3,0,0,1-.113.419l-2,1.089a.288.288,0,0,1-.377-.1A4.977,4.977,0,0,0,8.9-3.461c-3.355,0-5.847,2.635-5.847,6.35,0,3.663,2.492,6.35,5.847,6.35A5.035,5.035,0,0,0,13.029,6.91.29.29,0,0,1,13.4,6.8L15.415,7.85a.294.294,0,0,1,.116.427,7.632,7.632,0,0,1-6.636,3.7A8.707,8.707,0,0,1,0,2.888" transform="translate(0 6.201)" fill="#2d2e3d"/>
    </g>
    <g id="Group_322" data-name="Group 322" transform="translate(87.236 39.409)">
      <path id="Path_490" data-name="Path 490" d="M4.543,2.884c0-3.635-2.213-6.35-5.623-6.35C-4.514-3.465-6.7-.751-6.7,2.884c0,3.61,2.187,6.35,5.621,6.35,3.409,0,5.623-2.74,5.623-6.35m-14.3,0c0-4.371,2.495-7.773,6.273-8.783C2.906-7.6,8.766-1.62,7.378,5.057A8.41,8.41,0,0,1-1.08,11.975c-5.088,0-8.674-3.848-8.674-9.091" transform="translate(9.754 6.193)" fill="#2d2e3d"/>
    </g>
    <g id="Group_323" data-name="Group 323" transform="translate(107.638 39.687)">
      <path id="Path_491" data-name="Path 491" d="M4.823,5.518V-7.844L-.516,5.631a.146.146,0,0,1-.138.094H-1.769a.149.149,0,0,1-.138-.092L-7.271-7.844V5.518a.206.206,0,0,1-.207.207h-2.669a.206.206,0,0,1-.207-.207v-17.16a.206.206,0,0,1,.207-.207h3.858a.415.415,0,0,1,.387.264L-1.211.475,3.454-11.584a.417.417,0,0,1,.388-.264H7.7a.206.206,0,0,1,.207.207V5.518a.206.206,0,0,1-.207.207H5.029a.206.206,0,0,1-.207-.207" transform="translate(10.354 11.848)" fill="#2d2e3d"/>
    </g>
    <g id="Group_324" data-name="Group 324" transform="translate(153.17 39.686)">
      <path id="Path_492" data-name="Path 492" d="M0,5.483V-11.455a.319.319,0,0,1,.318-.318H11.723a.319.319,0,0,1,.318.318v2.078a.318.318,0,0,1-.318.318H3.4a.319.319,0,0,0-.318.318v3.9a.318.318,0,0,0,.318.317h8.138a.319.319,0,0,1,.318.318v2.078a.318.318,0,0,1-.318.318H3.4a.319.319,0,0,0-.318.318V2.77a.32.32,0,0,0,.318.318h8.323a.318.318,0,0,1,.318.318V5.483a.318.318,0,0,1-.318.318H.318A.318.318,0,0,1,0,5.483" transform="translate(0 11.773)" fill="#2d2e3d"/>
    </g>
    <g id="Group_325" data-name="Group 325" transform="translate(169.593 39.687)">
      <path id="Path_493" data-name="Path 493" d="M3.282,1.742a2.751,2.751,0,0,0-3-2.767H-3.648a.315.315,0,0,0-.315.315V4.245a.315.315,0,0,0,.315.315H.278a2.776,2.776,0,0,0,3-2.819M2.9,13.68-.789,7.429a.314.314,0,0,0-.271-.155H-3.648a.316.316,0,0,0-.315.315V13.52a.314.314,0,0,1-.315.314H-6.732a.314.314,0,0,1-.314-.314V-3.424a.314.314,0,0,1,.314-.315H.674c3.477,0,5.769,2.24,5.769,5.507A4.948,4.948,0,0,1,2.7,6.841a.315.315,0,0,0-.207.471c.736,1.174,2.97,4.743,3.783,6.043a.313.313,0,0,1-.268.479H3.172A.316.316,0,0,1,2.9,13.68" transform="translate(7.046 3.739)" fill="#2d2e3d"/>
    </g>
    <g id="Group_326" data-name="Group 326" transform="translate(203.901 39.687)">
      <path id="Path_494" data-name="Path 494" d="M0,5.486V-11.467a.31.31,0,0,1,.309-.311H11.731a.311.311,0,0,1,.311.311v2.093a.311.311,0,0,1-.311.309H3.393a.311.311,0,0,0-.311.311v3.912a.311.311,0,0,0,.311.309h8.154a.311.311,0,0,1,.309.311v2.093a.309.309,0,0,1-.309.309H3.393a.311.311,0,0,0-.311.311V2.773a.311.311,0,0,0,.311.309h8.337a.311.311,0,0,1,.311.311V5.486a.31.31,0,0,1-.311.309H.309A.308.308,0,0,1,0,5.486" transform="translate(0 11.778)" fill="#2d2e3d"/>
    </g>
    <g id="Group_327" data-name="Group 327" transform="translate(185.339 39.324)">
      <path id="Path_495" data-name="Path 495" d="M0,2.888A8.692,8.692,0,0,1,8.9-6.2a7.514,7.514,0,0,1,6.621,3.657.3.3,0,0,1-.113.419l-2,1.089a.286.286,0,0,1-.375-.1A4.981,4.981,0,0,0,8.9-3.461c-3.355,0-5.845,2.634-5.845,6.35,0,3.663,2.49,6.35,5.845,6.35A5.035,5.035,0,0,0,13.029,6.91.29.29,0,0,1,13.4,6.8L15.415,7.85a.293.293,0,0,1,.116.427,7.63,7.63,0,0,1-6.636,3.7A8.707,8.707,0,0,1,0,2.888" transform="translate(0 6.201)" fill="#2d2e3d"/>
    </g>
    <g id="Group_328" data-name="Group 328" transform="translate(130.399 39.687)">
      <path id="Path_496" data-name="Path 496" d="M4.823,5.518V-7.844L-.516,5.631a.146.146,0,0,1-.136.094H-1.769a.15.15,0,0,1-.138-.092L-7.271-7.844V5.518a.206.206,0,0,1-.207.207h-2.669a.206.206,0,0,1-.207-.207v-17.16a.206.206,0,0,1,.207-.207h3.858a.418.418,0,0,1,.388.264L-1.211.475,3.454-11.584a.417.417,0,0,1,.388-.264H7.7a.206.206,0,0,1,.207.207V5.518a.206.206,0,0,1-.207.207H5.029a.206.206,0,0,1-.207-.207" transform="translate(10.354 11.848)" fill="#2d2e3d"/>
    </g>
  </g>
</svg>
