<svg xmlns="http://www.w3.org/2000/svg" width="58.663" height="59.87" viewBox="0 0 58.663 59.87">
  <g id="google" transform="translate(0 -1.389)">
    <g id="Group_269" data-name="Group 269" transform="translate(3.226 1.389)">
      <path id="Path_440" data-name="Path 440" d="M0,5.247A25.933,25.933,0,0,1,4.97-1.9a28.914,28.914,0,0,1,16.685-8.921A28.9,28.9,0,0,1,46.164-4.008c.449.385.56.611.072,1.089C43.728-.462,41.26,2.033,38.778,4.514c-.255.254-.427.564-.879.15C31.644-1.066,21.437-1,14.791,5.18a19.1,19.1,0,0,0-4.967,7.579c-.154-.1-.317-.192-.463-.3Q4.677,8.853,0,5.247" transform="translate(0 11.265)" fill="#d62828"/>
    </g>
    <g id="Group_270" data-name="Group 270" transform="translate(3.202 37.118)">
      <path id="Path_441" data-name="Path 441" d="M3.106,0A20.1,20.1,0,0,0,6.772,6.259a17.623,17.623,0,0,0,15.682,6.007,18.99,18.99,0,0,0,8.025-2.8c.237.213.463.438.714.635q4.342,3.388,8.691,6.77A24.869,24.869,0,0,1,28.674,23c-10.005,2.53-19.228.931-27.417-5.532A27.8,27.8,0,0,1-6.669,7.59L3.106,0" transform="translate(6.669)" fill="#44aa42"/>
    </g>
    <g id="Group_271" data-name="Group 271" transform="translate(29.862 25.668)">
      <path id="Path_442" data-name="Path 442" d="M6.321,9Q1.974,5.616-2.37,2.228c-.249-.195-.475-.422-.712-.635A15.193,15.193,0,0,0,1.591-3.924,19.164,19.164,0,0,0,2.605-6.709c.2-.654.136-.909-.674-.9-4.821.041-9.643.021-14.466.019-1.022,0-1.023,0-1.023-1.057,0-3.267.016-6.536-.013-9.8-.006-.63.1-.872.815-.871q13.341.04,26.683.009c.479,0,.781.035.865.619,1.107,7.779.22,15.212-3.852,22.077A22.029,22.029,0,0,1,6.321,9" transform="translate(13.571 19.323)" fill="#5b7fbf"/>
    </g>
    <g id="Group_272" data-name="Group 272" transform="translate(0 17.902)">
      <path id="Path_443" data-name="Path 443" d="M4.124,6.106-5.652,13.7A27.071,27.071,0,0,1-8.589,4.249,29.581,29.581,0,0,1-6.083-12.267c.133-.289.3-.561.456-.843Q-.948-9.5,3.734-5.9c.145.111.309.2.463.3a18.92,18.92,0,0,0-.073,11.7" transform="translate(8.853 13.11)" fill="#f4c100"/>
    </g>
  </g>
</svg>
