<svg id="Group_315" data-name="Group 315" xmlns="http://www.w3.org/2000/svg" width="161.588" height="46.159" viewBox="0 0 161.588 46.159">
  <g id="Group_267" data-name="Group 267" transform="translate(0 0)">
    <path id="Path_437" data-name="Path 437" d="M158.177,426.775a.434.434,0,0,0-.393-.366c-.164-.014-3.628-.27-3.628-.27s-2.406-2.388-2.67-2.653a1.094,1.094,0,0,0-.98-.125l-1.346.416c-.8-2.313-2.222-4.438-4.717-4.438-.069,0-.14,0-.211.007A3.032,3.032,0,0,0,141.883,418c-5.812,0-8.589,7.266-9.46,10.959-2.258.7-3.863,1.2-4.068,1.262-1.261.4-1.3.435-1.466,1.623-.125.9-3.424,26.41-3.424,26.41l25.7,4.816,13.927-3.013S158.208,427,158.177,426.775Zm-10.439-2.559-2.174.673c0-.153,0-.3,0-.469a10.665,10.665,0,0,0-.519-3.512C146.331,421.07,147.187,422.533,147.738,424.216Zm-4.287-3.023a10.793,10.793,0,0,1,.59,3.915c0,.089,0,.17,0,.252l-4.492,1.391C140.412,423.414,142.033,421.8,143.451,421.193Zm-1.727-1.634a1.313,1.313,0,0,1,.746.251c-1.863.877-3.859,3.084-4.7,7.493l-3.551,1.1C135.2,425.04,137.549,419.559,141.724,419.559Z" transform="translate(-123.466 -418)" fill="#9dbd31"/>
    <path id="Path_438" data-name="Path 438" d="M187.8,432.616c-.164-.014-3.628-.27-3.628-.27s-2.406-2.388-2.67-2.653a.657.657,0,0,0-.371-.171l-1.943,39.753,13.926-3.013s-4.889-33.054-4.92-33.28A.434.434,0,0,0,187.8,432.616Z" transform="translate(-153.478 -424.206)" fill="#5f8c2f"/>
    <path id="Path_439" data-name="Path 439" d="M151.539,452.122l-1.717,5.108a7.9,7.9,0,0,0-3.349-.8c-2.7,0-2.84,1.7-2.84,2.125,0,2.333,6.081,3.227,6.081,8.692,0,4.3-2.727,7.068-6.4,7.068a8.91,8.91,0,0,1-6.669-2.746l1.182-3.9s2.319,1.991,4.277,1.991a1.725,1.725,0,0,0,1.8-1.742c0-3.043-4.99-3.179-4.99-8.18,0-4.209,3.021-8.282,9.119-8.282A7.5,7.5,0,0,1,151.539,452.122Z" transform="translate(-130.563 -436.017)" fill="#fff"/>
  </g>
  <path id="s" d="M232.975,464.167c-1.389-.754-2.1-1.389-2.1-2.262,0-1.111.992-1.826,2.54-1.826a9.076,9.076,0,0,1,3.413.754l1.27-3.889s-1.168-.913-4.6-.913c-4.782,0-8.1,2.738-8.1,6.588,0,2.183,1.547,3.85,3.611,5.04,1.667.953,2.262,1.627,2.262,2.62,0,1.032-.833,1.865-2.381,1.865a10.7,10.7,0,0,1-4.484-1.191l-1.349,3.889a10.329,10.329,0,0,0,5.4,1.349c4.921,0,8.453-2.421,8.453-6.786C236.9,467.063,235.118,465.4,232.975,464.167Z" transform="translate(-177.109 -438.485)" fill="#1d1d1b"/>
  <path id="h" d="M270.047,446.446a7.408,7.408,0,0,0-5.794,2.9l-.079-.04,2.1-10.993H260.8l-5.318,27.978h5.476l1.826-9.564c.715-3.611,2.58-5.834,4.326-5.834,1.23,0,1.707.833,1.707,2.024a12.515,12.515,0,0,1-.238,2.421l-2.064,10.953h5.477l2.143-11.31a20.49,20.49,0,0,0,.4-3.572C274.532,448.312,272.9,446.446,270.047,446.446Z" transform="translate(-194.576 -428.94)" fill="#1d1d1b"/>
  <path id="o" d="M310.822,455.945c-6.588,0-10.953,5.953-10.953,12.58,0,4.246,2.619,7.659,7.54,7.659,6.469,0,10.834-5.794,10.834-12.58C318.243,459.675,315.941,455.945,310.822,455.945Zm-2.7,16.033c-1.865,0-2.659-1.587-2.659-3.571,0-3.135,1.627-8.255,4.6-8.255,1.945,0,2.579,1.667,2.579,3.294C312.648,466.819,311.02,471.978,308.124,471.978Z" transform="translate(-218.485 -438.439)" fill="#1d1d1b"/>
  <path id="p" d="M352.176,455.945a7.494,7.494,0,0,0-5.794,3.254H346.3l.317-2.937h-4.841c-.238,1.984-.674,5-1.111,7.263l-3.81,20.041h5.477l1.508-8.1h.119a6.382,6.382,0,0,0,3.215.714c6.428,0,10.635-6.588,10.635-13.255C357.811,459.239,356.184,455.945,352.176,455.945Zm-5.239,16.112a3.477,3.477,0,0,1-2.262-.794l.913-5.119c.635-3.413,2.421-5.675,4.326-5.675,1.666,0,2.183,1.548,2.183,3.016C352.1,467.017,349.993,472.057,346.937,472.057Z" transform="translate(-238.408 -438.439)" fill="#1d1d1b"/>
  <path id="dot" d="M395.562,438.913a3.125,3.125,0,0,0-3.135,3.175,2.523,2.523,0,0,0,2.579,2.738h.079a3.092,3.092,0,0,0,3.214-3.175A2.6,2.6,0,0,0,395.562,438.913Z" transform="translate(-268.341 -429.265)" fill="#1d1d1b"/>
  <path id="i" d="M382.62,476.3H388.1l3.73-19.406h-5.516Z" transform="translate(-263.059 -438.949)" fill="#1d1d1b"/>
  <path id="f" d="M417.71,446.38H413.9l.2-.913c.317-1.865,1.429-3.532,3.254-3.532a5.707,5.707,0,0,1,1.746.278l1.072-4.286a7.231,7.231,0,0,0-2.977-.476,8.129,8.129,0,0,0-5.357,1.826,10.4,10.4,0,0,0-3.175,6.191l-.159.913h-2.54l-.794,4.127h2.54l-2.9,15.318h5.477l2.9-15.318h3.77Z" transform="translate(-275.012 -428.477)" fill="#1d1d1b"/>
  <path id="y" d="M443.767,456.891s-3.423,8.626-4.96,13.334h-.079c-.105-1.516-1.349-13.334-1.349-13.334h-5.754l3.294,17.818a1.166,1.166,0,0,1-.119.913,9.366,9.366,0,0,1-2.977,3.294,11.833,11.833,0,0,1-3.1,1.548l1.508,4.644a12.51,12.51,0,0,0,5.357-2.977c2.5-2.341,4.8-5.953,7.183-10.874l6.707-14.366Z" transform="translate(-287.893 -438.948)" fill="#1d1d1b"/>
</svg>
