<svg xmlns="http://www.w3.org/2000/svg" width="98.707" height="61.26" viewBox="0 0 98.707 61.26">
  <g id="wordpress" transform="translate(-173.593)">
    <g id="Group_273" data-name="Group 273" transform="translate(202.318 51.315)">
      <path id="Path_444" data-name="Path 444" d="M4.993,0H-.093V.539C1.5.539,1.754.881,1.754,2.9V6.536c0,2.017-.257,2.386-1.847,2.386-1.221-.17-2.045-.824-3.182-2.074l-1.307-1.42c1.762-.314,2.7-1.422,2.7-2.672C-1.883,1.193-3.218,0-5.719,0h-5V.539c1.592,0,1.847.342,1.847,2.358V6.536c0,2.017-.255,2.386-1.847,2.386v.539h5.655V8.922c-1.592,0-1.847-.369-1.847-2.386V5.513h.482l3.154,3.949H4.993c4.063,0,5.825-2.159,5.825-4.745S9.056,0,4.993,0m-11.9,4.632V.853h1.165A1.742,1.742,0,0,1-3.9,2.756,1.735,1.735,0,0,1-5.747,4.632ZM5.078,8.581h-.2c-1.023,0-1.164-.255-1.164-1.563V.853H5.078c2.955,0,3.494,2.159,3.494,3.836,0,1.733-.539,3.892-3.494,3.892" transform="translate(10.72)" fill="#006d99"/>
    </g>
    <g id="Group_274" data-name="Group 274" transform="translate(173.593 48.473)">
      <path id="Path_445" data-name="Path 445" d="M4.1,2.709l1.96-5.8c.569-1.675.314-2.159-1.505-2.159v-.569H9.9v.569c-1.791,0-2.216.427-2.927,2.5L3.73,6.971H3.36L.463-1.923-2.492,6.971h-.369L-6.016-2.747c-.682-2.074-1.136-2.5-2.785-2.5v-.569h6.309v.569c-1.677,0-2.131.4-1.535,2.159l1.9,5.8L.747-5.816h.539Z" transform="translate(8.801 5.816)" fill="#006d99"/>
    </g>
    <g id="Group_275" data-name="Group 275" transform="translate(190.47 50.945)">
      <path id="Path_446" data-name="Path 446" d="M1.806,3.241c-3.125,0-5.683-2.3-5.683-5.114,0-2.785,2.558-5.086,5.683-5.086s5.683,2.3,5.683,5.086c0,2.813-2.558,5.114-5.683,5.114m0-9.319c-2.613,0-3.524,2.358-3.524,4.205,0,1.875.91,4.205,3.524,4.205C4.449,2.333,5.357,0,5.357-1.873c0-1.847-.909-4.205-3.552-4.205" transform="translate(3.877 6.959)" fill="#006d99"/>
    </g>
    <g id="Group_276" data-name="Group 276" transform="translate(224.367 48.473)">
      <path id="Path_447" data-name="Path 447" d="M2.068,3.729V4.3H-4.439V3.729c1.9,0,2.244-.482,2.244-3.324V-4.141c0-2.842-.34-3.3-2.244-3.3v-.569H1.443c2.926,0,4.545,1.507,4.545,3.524,0,1.961-1.62,3.5-4.545,3.5H-.177V.4c0,2.842.34,3.324,2.244,3.324M1.443-6.983H-.177v4.944h1.62A2.22,2.22,0,0,0,3.772-4.482a2.252,2.252,0,0,0-2.329-2.5" transform="translate(4.439 8.006)" fill="#4c4742"/>
    </g>
    <g id="Group_277" data-name="Group 277" transform="translate(235.448 51.315)">
      <path id="Path_448" data-name="Path 448" d="M5.995,2.158l-.142.512c-.255.938-.569,1.278-2.586,1.278h-.4c-1.477,0-1.733-.34-1.733-2.358V.283c2.215,0,2.386.2,2.386,1.677h.539V-2.275H3.524C3.524-.8,3.352-.6,1.137-.6V-3.78H2.7c2.017,0,2.329.34,2.584,1.278l.142.539h.456l-.2-2.671H-2.671v.539c1.59,0,1.847.342,1.847,2.358V1.9c0,1.845-.217,2.31-1.472,2.376A5.235,5.235,0,0,1-5.426,2.215L-6.734.795c1.762-.314,2.7-1.422,2.7-2.672,0-1.563-1.335-2.756-3.836-2.756h-5v.539c1.592,0,1.847.342,1.847,2.358V1.9c0,2.017-.255,2.386-1.847,2.386v.539h5.653V4.289c-1.59,0-1.845-.369-1.845-2.386V.88h.482l3.154,3.949H6.251l.17-2.671ZM-9.063,0V-3.78H-7.9a1.743,1.743,0,0,1,1.848,1.9A1.735,1.735,0,0,1-7.9,0Z" transform="translate(12.871 4.633)" fill="#4c4742"/>
    </g>
    <g id="Group_278" data-name="Group 278" transform="translate(256.53 50.945)">
      <path id="Path_449" data-name="Path 449" d="M1.129,3.241a4.207,4.207,0,0,1-2.558-.966,2.046,2.046,0,0,0-.454.966h-.539V-.68h.567A3.154,3.154,0,0,0,1.356,2.3,1.462,1.462,0,0,0,3,.94C3,.2,2.35-.367,1.186-.907l-1.62-.767A3.091,3.091,0,0,1-2.423-4.4a2.79,2.79,0,0,1,3.04-2.53,3.552,3.552,0,0,1,2.216.74A1.611,1.611,0,0,0,3.2-6.959h.539v3.352h-.6C2.946-4.942,2.209-6.05.7-6.05c-.8,0-1.535.454-1.535,1.165,0,.739.6,1.136,1.961,1.762l1.563.767A2.964,2.964,0,0,1,4.6.2a3.209,3.209,0,0,1-3.467,3.04" transform="translate(2.423 6.959)" fill="#4c4742"/>
    </g>
    <g id="Group_279" data-name="Group 279" transform="translate(265.281 50.945)">
      <path id="Path_450" data-name="Path 450" d="M1.129,3.241a4.207,4.207,0,0,1-2.558-.966,2.046,2.046,0,0,0-.454.966h-.539V-.68h.567A3.154,3.154,0,0,0,1.356,2.3,1.462,1.462,0,0,0,3,.94C3,.2,2.35-.367,1.186-.907l-1.62-.767A3.091,3.091,0,0,1-2.423-4.4a2.79,2.79,0,0,1,3.04-2.53,3.552,3.552,0,0,1,2.216.74A1.611,1.611,0,0,0,3.2-6.959h.539v3.352h-.6C2.946-4.942,2.207-6.05.7-6.05c-.8,0-1.535.454-1.535,1.165,0,.739.6,1.136,1.961,1.762l1.563.767A2.967,2.967,0,0,1,4.6.2a3.209,3.209,0,0,1-3.467,3.04" transform="translate(2.423 6.959)" fill="#4c4742"/>
    </g>
    <g id="Group_280" data-name="Group 280" transform="translate(204.491 13.927)">
      <path id="Path_451" data-name="Path 451" d="M0,2.374A18.363,18.363,0,0,0,10.347,18.9L1.589-5.1A18.31,18.31,0,0,0,0,2.374" transform="translate(0 5.097)" fill="#4c4742"/>
    </g>
    <g id="Group_281" data-name="Group 281" transform="translate(207.51 3.041)">
      <path id="Path_452" data-name="Path 452" d="M8.812,5.539A9.661,9.661,0,0,0,7.3.476c-.931-1.513-1.8-2.792-1.8-4.3A3.179,3.179,0,0,1,8.577-7.087c.082,0,.158.01.239.015a18.3,18.3,0,0,0-12.4-4.819A18.338,18.338,0,0,0-18.919-3.618c.432.013.837.022,1.181.022,1.92,0,4.893-.233,4.893-.233a.759.759,0,0,1,.117,1.513s-.994.117-2.1.174l6.685,19.885L-4.125,5.694-6.986-2.142c-.988-.057-1.925-.174-1.925-.174a.759.759,0,0,1,.116-1.513s3.031.233,4.836.233c1.919,0,4.893-.233,4.893-.233a.759.759,0,0,1,.117,1.513s-1,.117-2.1.174L5.583,17.592l1.832-6.118a22.209,22.209,0,0,0,1.4-5.935" transform="translate(18.919 11.892)" fill="#4c4742"/>
    </g>
    <g id="Group_282" data-name="Group 282" transform="translate(217.663 23.004)">
      <path id="Path_453" data-name="Path 453" d="M1.75,0-3.758,16a18.351,18.351,0,0,0,5.186.748,18.334,18.334,0,0,0,6.1-1.041,1.514,1.514,0,0,1-.13-.252Z" transform="translate(3.758)" fill="#4c4742"/>
    </g>
    <g id="Group_283" data-name="Group 283" transform="translate(232.078 12.592)">
      <path id="Path_454" data-name="Path 454" d="M2.186,0a14.053,14.053,0,0,1,.123,1.888,17.31,17.31,0,0,1-1.4,6.574L-4.693,24.675A18.351,18.351,0,0,0,4.434,8.806,18.262,18.262,0,0,0,2.186,0" transform="translate(4.693)" fill="#4c4742"/>
    </g>
    <g id="Group_284" data-name="Group 284" transform="translate(201.45)">
      <path id="Path_455" data-name="Path 455" d="M6.8,0A21.4,21.4,0,1,0,28.2,21.4,21.423,21.423,0,0,0,6.8,0m0,41.817A20.418,20.418,0,1,1,27.216,21.4,20.441,20.441,0,0,1,6.8,41.817" transform="translate(14.599)" fill="#4c4742"/>
    </g>
  </g>
</svg>
